<svg xmlns="http://www.w3.org/2000/svg" x="0px" y="0px" width="64" height="64" viewBox="0 0 172 172" style=" fill:#000000;">
    <g fill="none" fill-rule="nonzero" stroke="none" stroke-width="1" stroke-linecap="butt" stroke-linejoin="miter" stroke-miterlimit="10" stroke-dasharray="" stroke-dashoffset="0" font-family="none" font-weight="none" font-size="none" text-anchor="none" style="mix-blend-mode: normal">
        <path d="M0,172v-172h172v172z" fill="none"></path>
        <g>
            <path d="M108.29953,23.40813v20.90203l-15.39937,4.33359l-5.07602,1.42773v-19.83711z" fill="#2b2b2b"></path>
            <path d="M87.82414,30.23438v19.83711l-5.96625,-1.67969l-14.50914,-4.08164v-14.07578v-6.82625z" fill="#323133"></path>
            <path d="M118.53891,19.995l-10.23938,3.41313l-20.47539,6.82625l-20.47539,-6.82625l-10.23937,-3.41313l30.71477,-10.23602z" fill="#3c3b3d"></path>
            <path d="M93.39063,124.96875c0,3.33922 -2.70766,6.04688 -6.04687,6.04688c-1.66961,0 -3.18133,-0.67859 -4.27648,-1.77039c-1.0918,-1.09516 -1.77039,-2.60687 -1.77039,-4.27648v-74.57812l0.56102,-1.99883l5.96625,1.67969l5.07602,-1.42773l0.49047,1.74687z" fill="#e64c42"></path>
            <path d="M164.60938,43.67188v117.57813h-63.82812c-7.42086,0 -13.4375,-6.01664 -13.4375,-13.4375h13.4375h50.39063v-104.14062z" fill="#bec3c7"></path>
            <path d="M118.53891,30.23438h2.39859h30.23438v13.4375v104.14063h-50.39062h-13.4375v-16.79687c3.33922,0 6.04688,-2.70766 6.04688,-6.04687v-74.57812l-0.49047,-1.74687l15.39937,-4.33359v-20.90203l10.23938,-3.41312z" fill="#afb9d2"></path>
            <path d="M81.29688,124.96875c0,1.66961 0.67859,3.18133 1.77039,4.27648c1.09516,1.0918 2.60688,1.77039 4.27648,1.77039v16.79688h-13.4375h-50.39062v-104.14062v-13.4375h40.3125h3.52062v14.07578l14.50914,4.08164l-0.56102,1.99883z" fill="#d7deed"></path>
            <path d="M87.34375,147.8125c0,7.42086 -6.01664,13.4375 -13.4375,13.4375h-63.82812v-117.57812h13.4375v104.14063h50.39063z" fill="#ecf0f1"></path>
            <path d="M73.90625,164.60938h-63.82812c-1.85538,0 -3.35937,-1.50433 -3.35937,-3.35937v-117.57812c0,-1.85538 1.50399,-3.35937 3.35938,-3.35937h13.4375c1.85538,0 3.35938,1.50399 3.35938,3.35938c0,1.85538 -1.50399,3.35938 -3.35937,3.35938h-10.07812v110.85938h60.46875c5.55708,0 10.07813,-4.52105 10.07813,-10.07812c0,-1.85505 1.50399,-3.35937 3.35938,-3.35937c1.85505,0 3.35938,1.50433 3.35938,3.35938c0,9.2618 -7.53508,16.79688 -16.79687,16.79688z" fill="#000000"></path>
            <path d="M164.60938,164.60938h-63.82812c-9.2618,0 -16.79687,-7.53508 -16.79687,-16.79687c0,-1.85505 1.50399,-3.35937 3.35938,-3.35937c1.85505,0 3.35938,1.50433 3.35938,3.35938c0,5.55708 4.52105,10.07813 10.07813,10.07813h60.46875v-110.85937h-10.07812c-1.85505,0 -3.35937,-1.50399 -3.35937,-3.35937c0,-1.85538 1.50433,-3.35937 3.35938,-3.35937h13.4375c1.85505,0 3.35938,1.50399 3.35938,3.35938v117.57813c0,1.85505 -1.50433,3.35938 -3.35937,3.35938z" fill="#000000"></path>
            <path d="M124.29688,77.26563h-16.79687c-1.85505,0 -3.35937,-1.50399 -3.35937,-3.35937c0,-1.85538 1.50433,-3.35937 3.35938,-3.35937h16.79688c1.85505,0 3.35938,1.50399 3.35938,3.35938c0,1.85538 -1.50433,3.35938 -3.35937,3.35938z" fill="#000000"></path>
            <path d="M137.73438,87.34375h-30.23437c-1.85505,0 -3.35937,-1.50399 -3.35937,-3.35937c0,-1.85538 1.50433,-3.35937 3.35938,-3.35937h30.23438c1.85505,0 3.35938,1.50399 3.35938,3.35938c0,1.85538 -1.50433,3.35938 -3.35937,3.35938z" fill="#000000"></path>
            <path d="M137.73438,97.42188h-30.23437c-1.85505,0 -3.35937,-1.50433 -3.35937,-3.35937c0,-1.85505 1.50433,-3.35937 3.35938,-3.35937h30.23438c1.85505,0 3.35938,1.50433 3.35938,3.35938c0,1.85505 -1.50433,3.35938 -3.35937,3.35938z" fill="#000000"></path>
            <path d="M137.73438,107.5h-30.23437c-1.85505,0 -3.35937,-1.50433 -3.35937,-3.35937c0,-1.85505 1.50433,-3.35937 3.35938,-3.35937h30.23438c1.85505,0 3.35938,1.50433 3.35938,3.35938c0,1.85505 -1.50433,3.35938 -3.35937,3.35938z" fill="#000000"></path>
            <path d="M137.73438,117.57813h-30.23437c-1.85505,0 -3.35937,-1.50433 -3.35937,-3.35937c0,-1.85505 1.50433,-3.35937 3.35938,-3.35937h30.23438c1.85505,0 3.35938,1.50433 3.35938,3.35938c0,1.85505 -1.50433,3.35938 -3.35937,3.35938z" fill="#000000"></path>
            <path d="M137.73438,127.65625h-30.23437c-1.85505,0 -3.35937,-1.50433 -3.35937,-3.35937c0,-1.85505 1.50433,-3.35937 3.35938,-3.35937h30.23438c1.85505,0 3.35938,1.50433 3.35938,3.35938c0,1.85505 -1.50433,3.35938 -3.35937,3.35938z" fill="#000000"></path>
            <path d="M137.73438,137.73438h-10.99523c-1.85505,0 -3.35937,-1.50433 -3.35937,-3.35937c0,-1.85505 1.50433,-3.35937 3.35938,-3.35937h10.99523c1.85505,0 3.35938,1.50433 3.35938,3.35938c0,1.85505 -1.50433,3.35938 -3.35937,3.35938z" fill="#000000"></path>
            <path d="M53.75,77.26563h-16.79687c-1.85538,0 -3.35937,-1.50399 -3.35937,-3.35937c0,-1.85538 1.50399,-3.35937 3.35938,-3.35937h16.79688c1.85538,0 3.35938,1.50399 3.35938,3.35938c0,1.85538 -1.50399,3.35938 -3.35937,3.35938z" fill="#000000"></path>
            <path d="M67.1875,87.34375h-30.23437c-1.85538,0 -3.35937,-1.50399 -3.35937,-3.35937c0,-1.85538 1.50399,-3.35937 3.35938,-3.35937h30.23438c1.85538,0 3.35938,1.50399 3.35938,3.35938c0,1.85538 -1.50399,3.35938 -3.35937,3.35938z" fill="#000000"></path>
            <path d="M67.1875,97.42188h-30.23437c-1.85538,0 -3.35937,-1.50433 -3.35937,-3.35937c0,-1.85505 1.50399,-3.35937 3.35938,-3.35937h30.23438c1.85538,0 3.35938,1.50433 3.35938,3.35938c0,1.85505 -1.50399,3.35938 -3.35937,3.35938z" fill="#000000"></path>
            <path d="M67.1875,107.5h-30.23437c-1.85538,0 -3.35937,-1.50433 -3.35937,-3.35937c0,-1.85505 1.50399,-3.35937 3.35938,-3.35937h30.23438c1.85538,0 3.35938,1.50433 3.35938,3.35938c0,1.85505 -1.50399,3.35938 -3.35937,3.35938z" fill="#000000"></path>
            <path d="M67.1875,117.57813h-30.23437c-1.85538,0 -3.35937,-1.50433 -3.35937,-3.35937c0,-1.85505 1.50399,-3.35937 3.35938,-3.35937h30.23438c1.85538,0 3.35938,1.50433 3.35938,3.35938c0,1.85505 -1.50399,3.35938 -3.35937,3.35938z" fill="#000000"></path>
            <path d="M67.1875,127.65625h-30.23437c-1.85538,0 -3.35937,-1.50433 -3.35937,-3.35937c0,-1.85505 1.50399,-3.35937 3.35938,-3.35937h30.23438c1.85538,0 3.35938,1.50433 3.35938,3.35938c0,1.85505 -1.50399,3.35938 -3.35937,3.35938z" fill="#000000"></path>
            <path d="M67.1875,137.73438h-10.99523c-1.85538,0 -3.35937,-1.50433 -3.35937,-3.35937c0,-1.85505 1.50399,-3.35937 3.35938,-3.35937h10.99523c1.85538,0 3.35938,1.50433 3.35938,3.35938c0,1.85505 -1.50399,3.35938 -3.35937,3.35938z" fill="#000000"></path>
            <path d="M87.34375,134.375c-2.50811,0 -4.86941,-0.97691 -6.64854,-2.75066c-1.7808,-1.78685 -2.75771,-4.14782 -2.75771,-6.65559v-74.57812c0,-1.85538 1.50399,-3.35937 3.35938,-3.35937c1.85538,0 3.35938,1.50399 3.35938,3.35938v74.57813c0,0.71723 0.28051,1.39347 0.79046,1.9051c0.50357,0.50189 1.17981,0.7824 1.89704,0.7824c1.85505,0 3.35938,1.50433 3.35938,3.35938c0,1.85505 -1.50433,3.35938 -3.35937,3.35938z" fill="#000000"></path>
            <path d="M87.34375,151.17188h-63.82812c-1.85538,0 -3.35937,-1.50433 -3.35937,-3.35937v-117.57812c0,-1.85538 1.50399,-3.35937 3.35938,-3.35937h40.3125c1.85538,0 3.35938,1.50399 3.35938,3.35938c0,1.85538 -1.50399,3.35938 -3.35937,3.35938h-36.95312v110.85938h60.46875c1.85505,0 3.35938,1.50433 3.35938,3.35938c0,1.85505 -1.50433,3.35938 -3.35937,3.35938z" fill="#000000"></path>
            <path d="M151.17188,151.17188h-63.82812c-1.85538,0 -3.35937,-1.50433 -3.35937,-3.35937v-16.79687c0,-1.85505 1.50399,-3.35937 3.35938,-3.35937c1.48182,0 2.6875,-1.20568 2.6875,-2.6875v-74.57812c0,-1.85538 1.50433,-3.35937 3.35938,-3.35937c1.85505,0 3.35938,1.50399 3.35938,3.35938v74.57813c0,4.0037 -2.51416,7.43094 -6.04687,8.78611v10.69827h57.10938v-110.85937h-26.875c-1.85505,0 -3.35937,-1.50399 -3.35937,-3.35937c0,-1.85538 1.50433,-3.35937 3.35938,-3.35937h30.23438c1.85505,0 3.35938,1.50399 3.35938,3.35938v117.57813c0,1.85505 -1.50433,3.35938 -3.35937,3.35938z" fill="#000000"></path>
            <path d="M87.82582,53.43153c-0.301,0 -0.60771,-0.04098 -0.91207,-0.12631l-20.47472,-5.76099c-1.4489,-0.40749 -2.44966,-1.72873 -2.44966,-3.23373v-20.90237c0,-1.85538 1.50399,-3.35937 3.35938,-3.35937c1.85538,0 3.35938,1.50399 3.35938,3.35938v18.3573l18.02641,5.07232c1.78584,0.5029 2.82591,2.35828 2.32334,4.14413c-0.41757,1.48148 -1.76502,2.44966 -3.23205,2.44966z" fill="#000000"></path>
            <path d="M87.82448,53.43086c-0.72428,0 -1.43815,-0.23415 -2.02906,-0.68162c-0.83816,-0.63526 -1.33065,-1.62594 -1.33065,-2.67776v-19.83711c0,-1.85538 1.50399,-3.35937 3.35937,-3.35937c1.85505,0 3.35938,1.50399 3.35938,3.35938v15.4024l13.75664,-3.87101v-18.35764c0,-1.85538 1.50433,-3.35937 3.35938,-3.35937c1.85505,0 3.35938,1.50399 3.35938,3.35938v20.90203c0,1.50466 -1.00076,2.82624 -2.44932,3.23373l-20.47573,5.76133c-0.29966,0.08432 -0.6057,0.12564 -0.90938,0.12564z" fill="#000000"></path>
            <path d="M87.82414,33.59375c-0.35878,0 -0.7179,-0.05745 -1.06257,-0.17234l-30.71443,-10.23938c-1.37197,-0.45721 -2.29714,-1.74116 -2.29714,-3.18704c0,-1.44588 0.92551,-2.72949 2.29714,-3.18704l30.71443,-10.23602c0.68968,-0.23012 1.43479,-0.23012 2.12447,0l30.7151,10.23602c1.37163,0.45721 2.29714,1.74116 2.29714,3.18704c0,1.44621 -0.92517,2.72983 -2.29714,3.18704l-30.71477,10.23938c-0.34501,0.11489 -0.70345,0.17234 -1.06223,0.17234zM67.7334,19.99534l20.09041,6.69792l20.09074,-6.69792l-20.09041,-6.69557z" fill="#000000"></path>
            <path d="M118.53891,37.00688c-1.85505,0 -3.35937,-1.50399 -3.35937,-3.35937v-13.6525c0,-1.85538 1.50433,-3.35937 3.35938,-3.35937c1.85505,0 3.35938,1.50399 3.35938,3.35938v13.6525c0,1.85538 -1.50399,3.35938 -3.35937,3.35938z" fill="#000000"></path>
        </g>
    </g>
</svg>
