<svg xmlns="http://www.w3.org/2000/svg" x="0px" y="0px" width="24" height="24" viewBox="0 0 172 172" style=" fill:#000000;">
    <g fill="none" fill-rule="none" stroke="none" stroke-width="1" stroke-linecap="butt" stroke-linejoin="miter" stroke-miterlimit="10" stroke-dasharray="" stroke-dashoffset="0" font-family="none" font-weight="none" font-size="none" text-anchor="none" style="mix-blend-mode: normal">
        <path d="M0,172v-172h172v172z" fill="none" fill-rule="nonzero"></path>
        <g fill="#f1c40f" fill-rule="evenodd">
            <path d="M76.69767,19.9305c1.8275,-3.44 5.40367,-5.59717 9.30233,-5.59717c3.89867,0 7.47483,2.15717 9.30233,5.59717l17.6515,33.28917c0.20067,0.387 0.4945,0.71667 0.84567,0.97467c0.35117,0.258 0.75967,0.43 1.18967,0.50167l37.109,6.50017c3.84133,0.67367 6.9875,3.41133 8.19867,7.1165c1.204,3.70517 0.26517,7.77583 -2.451,10.578l-26.20133,27.07567c-0.301,0.31533 -0.53033,0.69517 -0.6665,1.10367c-0.13617,0.41567 -0.172,0.85283 -0.11467,1.29l5.28183,37.3025c0.54467,3.85567 -1.08217,7.70417 -4.2355,9.9975c-3.15333,2.29333 -7.31,2.65167 -10.8145,0.93883l-33.841,-16.555c-0.387,-0.1935 -0.817,-0.29383 -1.25417,-0.29383c-0.43717,0 -0.86717,0.10033 -1.26133,0.28667l-33.841,16.555c-3.5045,1.71283 -7.66117,1.34733 -10.8145,-0.93883c-3.15333,-2.29333 -4.78017,-6.13467 -4.2355,-9.9975l5.28183,-37.3025c0.0645,-0.43 0.0215,-0.87433 -0.11467,-1.29c-0.13617,-0.41567 -0.35833,-0.7955 -0.6665,-1.10367l-26.20133,-27.07567c-2.709,-2.80217 -3.655,-6.87283 -2.451,-10.578c1.204,-3.70517 4.35733,-6.44283 8.19867,-7.1165l37.109,-6.50017c0.43,-0.07883 0.8385,-0.25083 1.18967,-0.50167c0.35117,-0.258 0.645,-0.58767 0.84567,-0.97467z"></path>
        </g>
    </g>
</svg>
