<svg xmlns="http://www.w3.org/2000/svg" x="0px" y="0px" width="24" height="24" viewBox="0 0 172 172" style=" fill:#000000;">
    <g fill="none" fill-rule="none" stroke="none" stroke-width="1" stroke-linecap="butt" stroke-linejoin="miter" stroke-miterlimit="10" stroke-dasharray="" stroke-dashoffset="0" font-family="none" font-weight="none" font-size="none" text-anchor="none" style="mix-blend-mode: normal">
        <path d="M0,172v-172h172v172z" fill="none" fill-rule="nonzero"></path>
        <g fill="#f1c40f" fill-rule="evenodd">
            <path d="M76.69767,19.9305l-17.6515,33.282c-0.20067,0.387 -0.4945,0.71667 -0.84567,0.97467c-0.35117,0.258 -0.75967,0.43 -1.18967,0.50167l-37.109,6.50733c-3.84133,0.67367 -6.99467,3.41133 -8.19867,7.1165c-1.204,3.70517 -0.26517,7.77583 2.451,10.578l26.20133,27.07567c0.301,0.31533 0.53033,0.69517 0.6665,1.10367c0.13617,0.41567 0.172,0.85283 0.11467,1.29l-5.28183,37.3025c-0.54467,3.85567 1.08217,7.70417 4.2355,9.9975c3.15333,2.29333 7.31,2.65167 10.8145,0.93883l33.841,-16.555c0.39417,-0.1935 0.82417,-0.28667 1.26133,-0.28667v-125.42383c-3.90583,0 -7.482,2.15717 -9.3095,5.59717z"></path>
            <path d="M131.6445,105.95917l26.20133,-27.07567c2.709,-2.80217 3.655,-6.87283 2.451,-10.578c-1.204,-3.70517 -4.35733,-6.44283 -8.19867,-7.1165l-37.109,-6.50017c-0.43,-0.07883 -0.8385,-0.25083 -1.18967,-0.50167c-0.35117,-0.258 -0.645,-0.58767 -0.84567,-0.97467l-17.6515,-33.28917c-1.8275,-3.43283 -5.40367,-5.59 -9.30233,-5.59v125.41667c0.43717,0 0.86717,0.10033 1.26133,0.28667l33.841,16.555c3.5045,1.71283 7.66117,1.34733 10.8145,-0.93883c3.15333,-2.29333 4.78017,-6.13467 4.2355,-9.9975l-5.28183,-37.3025c-0.0645,-0.43 -0.0215,-0.87433 0.11467,-1.29c0.129,-0.4085 0.35833,-0.78833 0.65933,-1.10367z" opacity="0.35"></path>
        </g>
    </g>
</svg>
